<svg width="522" height="140" viewBox="0 0 522 140" fill="none" xmlns="http://www.w3.org/2000/svg">
<circle cx="6.53648" cy="132.902" r="6.22789" fill="#0C2949"/>
<ellipse cx="28.0509" cy="100.63" rx="6.22789" ry="5.66172" fill="#0C2949"/>
<circle cx="55.2272" cy="69.4916" r="6.22789" fill="#0C2949"/>
<ellipse cx="90.8961" cy="42.3158" rx="5.66172" ry="6.22789" fill="#0C2949"/>
<circle cx="177.52" cy="7.21226" r="6.22789" fill="#0C2949"/>
<circle cx="131.094" cy="20.8002" r="6.22789" fill="#0C2949"/>
<ellipse cx="6.79406" cy="6.22789" rx="6.79406" ry="6.22789" transform="matrix(-1 0 0 1 521.187 126.674)" fill="#0C2949"/>
<ellipse cx="6.79406" cy="5.66172" rx="6.79406" ry="5.66172" transform="matrix(-1 0 0 1 498.54 94.9688)" fill="#0C2949"/>
<ellipse cx="6.79406" cy="6.22789" rx="6.79406" ry="6.22789" transform="matrix(-1 0 0 1 470.231 63.2637)" fill="#0C2949"/>
<circle cx="6.22789" cy="6.22789" r="6.22789" transform="matrix(-1 0 0 1 431.731 36.0879)" fill="#0C2949"/>
<ellipse cx="6.79406" cy="6.22789" rx="6.79406" ry="6.22789" transform="matrix(-1 0 0 1 341.144 0.984375)" fill="#0C2949"/>
<ellipse cx="6.79406" cy="6.22789" rx="6.79406" ry="6.22789" transform="matrix(-1 0 0 1 389.835 14.5723)" fill="#0C2949"/>
</svg>
