<svg width="259" height="62" viewBox="0 0 259 62" fill="none" xmlns="http://www.w3.org/2000/svg">
<path d="M12.6484 34.3313C15.4634 36.0015 18.2199 37.0683 21.3074 37.1111C29.5302 37.228 36.3398 31.2516 37.0445 22.8963C37.6674 15.4794 32.6605 8.22989 24.5155 6.59855C16.8767 5.06844 9.16383 9.78336 6.92901 17.4378C6.52021 18.8511 6.30607 20.315 6.28271 21.7828C6.20095 26.6729 6.25156 31.563 6.25156 36.8814C3.43274 34.1794 1.46657 30.7104 0.606128 26.8988C-2.24774 14.8214 5.25485 2.94265 17.2504 0.466442C20.0926 -0.133141 23.0282 -0.156502 25.8821 0.404148C28.736 0.964798 31.4458 2.09777 33.8519 3.72911C36.258 5.36045 38.3098 7.46289 39.8828 9.90794C41.4557 12.353 42.5225 15.0862 43.0131 17.9517C44.4186 26.124 41.8606 33.2528 35.3586 38.5245C28.9579 43.7144 21.6733 44.7461 13.8671 41.9896C12.9365 41.6586 12.5861 41.1953 12.629 40.1986C12.699 38.3259 12.6484 36.4493 12.6484 34.3313Z" fill="white"/>
<path d="M21.7195 12.9981C26.6407 12.9981 30.4446 16.8409 30.4095 21.7894C30.3706 26.7379 26.559 30.4912 21.6105 30.4834C16.7398 30.4834 12.6439 26.4849 12.8542 21.4974C13.045 16.4009 17.0591 12.819 21.7195 12.9981Z" fill="white"/>
<path d="M21.6636 61.7715L9.01782 42.028C17.5638 46.6962 25.7011 46.7585 34.029 42.468L21.6636 61.7715Z" fill="#2BADFF"/>
<path d="M70.3226 30.3242C70.9339 29.7402 71.2375 28.9148 71.2375 27.848C71.2375 26.7773 70.9339 25.9519 70.3226 25.3679C69.7113 24.7839 68.7847 24.4918 67.5388 24.4918H63.9919V31.2002H67.5388C68.7847 31.2002 69.7113 30.9082 70.3226 30.3242ZM76.8051 32.0957C76.0926 33.3805 74.9986 34.4161 73.5269 35.2065C72.0513 35.993 70.2214 36.3862 68.0333 36.3862H63.9919V45.9951H57.4744V19.228H68.0333C70.1708 19.228 71.9734 19.5978 73.449 20.3337C74.9246 21.0734 76.0303 22.0896 76.7662 23.3861C77.502 24.6826 77.8719 26.1699 77.8719 27.848C77.8719 29.3975 77.5137 30.8147 76.8051 32.0957Z" fill="#2BADFF"/>
<path d="M90.6446 25.5002C91.7892 24.8267 93.0585 24.4919 94.4562 24.4919V31.391H92.6653C91.0378 31.391 89.8192 31.7414 89.0055 32.4383C88.1917 33.1391 87.7829 34.3655 87.7829 36.1176V45.9951H81.2654V24.7177H87.7829V28.2646C88.546 27.0965 89.4999 26.1738 90.6446 25.5002Z" fill="#2BADFF"/>
<path d="M104.103 46.001H97.5814V24.7275H104.103V46.001ZM98.0603 21.5037C97.3362 20.8302 96.9741 19.997 96.9741 19.0081C96.9741 17.9919 97.3362 17.147 98.0603 16.4735C98.7845 15.7999 99.7189 15.4611 100.864 15.4611C101.981 15.4611 102.904 15.7999 103.628 16.4735C104.352 17.147 104.714 17.9919 104.714 19.0081C104.714 19.997 104.352 20.8302 103.628 21.5037C102.904 22.1773 101.981 22.516 100.864 22.516C99.7189 22.516 98.7845 22.1773 98.0603 21.5037Z" fill="#2BADFF"/>
<path d="M108.888 29.565C109.791 27.9142 111.048 26.641 112.66 25.7534C114.276 24.8618 116.125 24.4179 118.208 24.4179C120.879 24.4179 123.11 25.1187 124.901 26.5165C126.692 27.9142 127.868 29.8843 128.429 32.4228H121.491C120.903 30.7992 119.774 29.9855 118.096 29.9855C116.9 29.9855 115.946 30.4488 115.234 31.3754C114.525 32.306 114.167 33.6336 114.167 35.3623C114.167 37.0909 114.525 38.4186 115.234 39.3452C115.946 40.2719 116.9 40.7352 118.096 40.7352C119.774 40.7352 120.903 39.9214 121.491 38.2979H128.429C127.868 40.7858 126.688 42.7442 124.882 44.1691C123.079 45.5902 120.852 46.3027 118.208 46.3027C116.125 46.3027 114.276 45.8589 112.66 44.9673C111.048 44.0796 109.791 42.8065 108.888 41.1557C107.984 39.5049 107.533 37.5737 107.533 35.3623C107.533 33.1508 107.984 31.2158 108.888 29.565Z" fill="#2BADFF"/>
<path d="M145.28 33.3027C145.28 32.1853 144.898 31.2937 144.135 30.6357C143.372 29.9738 142.418 29.6429 141.277 29.6429C140.183 29.6429 139.26 29.9621 138.513 30.5967C137.762 31.2314 137.298 32.1346 137.119 33.3027H145.28ZM151.836 36.9235H137.08C137.185 38.2473 137.61 39.2557 138.361 39.9565C139.109 40.6534 140.031 41.0038 141.125 41.0038C142.749 41.0038 143.882 40.3186 144.517 38.9442H151.455C151.1 40.3419 150.458 41.6034 149.531 42.7208C148.601 43.8382 147.441 44.7142 146.043 45.3489C144.645 45.9874 143.08 46.3027 141.351 46.3027C139.268 46.3027 137.411 45.8589 135.788 44.9712C134.16 44.0796 132.887 42.8104 131.972 41.1557C131.057 39.5049 130.602 37.5737 130.602 35.3623C130.602 33.1508 131.053 31.2197 131.953 29.565C132.856 27.9142 134.121 26.6449 135.749 25.7533C137.372 24.8657 139.241 24.4179 141.351 24.4179C143.411 24.4179 145.241 24.8501 146.845 25.7144C148.445 26.5787 149.695 27.813 150.598 29.4131C151.501 31.0133 151.953 32.8822 151.953 35.0196C151.953 35.627 151.914 36.2655 151.836 36.9235Z" fill="#2BADFF"/>
<path d="M161.904 24.4529V29.8686H170.633V34.8989H161.904V40.7702H171.777V45.9951H155.382V19.228H171.777V24.4529H161.904Z" fill="white"/>
<path d="M189.296 31.5078C188.393 30.5695 187.295 30.0984 185.999 30.0984C184.702 30.0984 183.604 30.5617 182.701 31.4883C181.798 32.415 181.346 33.6959 181.346 35.3194C181.346 36.9469 181.798 38.2356 182.701 39.1895C183.604 40.1434 184.702 40.6223 185.999 40.6223C187.295 40.6223 188.393 40.1512 189.296 39.209C190.2 38.2706 190.651 36.9858 190.651 35.3584C190.651 33.7309 190.2 32.45 189.296 31.5078ZM175.954 29.565C176.779 27.9103 177.904 26.641 179.325 25.7495C180.75 24.8618 182.339 24.4179 184.091 24.4179C185.59 24.4179 186.906 24.7216 188.039 25.3329C189.168 25.9402 190.04 26.7423 190.651 27.7351V24.7216H197.169V45.9952H190.651V42.9856C190.017 43.9745 189.133 44.7765 188 45.3878C186.871 45.9952 185.555 46.3027 184.056 46.3027C182.323 46.3027 180.75 45.8511 179.325 44.9478C177.904 44.0446 176.779 42.7636 175.954 41.0973C175.124 39.4309 174.712 37.5075 174.712 35.3194C174.712 33.1352 175.124 31.2158 175.954 29.565Z" fill="white"/>
<path d="M205.594 45.3489C204.146 44.7142 203.001 43.8421 202.164 42.7364C201.323 41.6307 200.852 40.3925 200.75 39.0182H207.194C207.272 39.7579 207.615 40.3536 208.226 40.813C208.833 41.2686 209.585 41.4983 210.472 41.4983C211.286 41.4983 211.917 41.3386 212.361 41.0233C212.804 40.704 213.026 40.2913 213.026 39.7813C213.026 39.1739 212.711 38.7223 212.076 38.4303C211.438 38.1383 210.41 37.8112 208.985 37.4569C207.463 37.1026 206.19 36.725 205.173 36.3317C204.157 35.9385 203.281 35.3156 202.541 34.4629C201.806 33.6141 201.44 32.4617 201.44 31.0133C201.44 29.7947 201.774 28.6812 202.448 27.6767C203.122 26.6722 204.114 25.8779 205.423 25.2939C206.731 24.7099 208.288 24.4179 210.095 24.4179C212.762 24.4179 214.864 25.0798 216.402 26.3997C217.94 27.7234 218.824 29.4754 219.053 31.6596H213.026C212.925 30.9238 212.602 30.3398 212.057 29.9076C211.508 29.4754 210.792 29.2574 209.904 29.2574C209.141 29.2574 208.553 29.4054 208.148 29.6974C207.739 29.9894 207.537 30.3904 207.537 30.9004C207.537 31.5078 207.864 31.9672 208.51 32.2709C209.16 32.5746 210.169 32.8822 211.543 33.1859C213.116 33.5947 214.401 33.9918 215.394 34.3889C216.383 34.7822 217.255 35.4168 218.006 36.2928C218.754 37.1727 219.143 38.3446 219.166 39.8202C219.166 41.0661 218.816 42.1796 218.119 43.1569C217.418 44.1341 216.414 44.905 215.105 45.4618C213.797 46.0224 212.279 46.3027 210.55 46.3027C208.693 46.3027 207.042 45.9835 205.594 45.3489Z" fill="white"/>
<path d="M244.904 24.7256L231.557 56.1025H224.545L229.423 45.275L220.768 24.7256H228.053L232.97 38.0333L237.849 24.7256H244.904Z" fill="white"/>
<path d="M259 24.7247V31.5693H257.696L257.676 26.6091L255.558 31.5693H254.565L252.467 26.5313V31.5693H251.182V24.7247H252.992L255.11 29.9146L257.287 24.7247H259ZM245.389 24.7247H250.096V25.8149H248.441V31.5693H247.043L247.063 25.8149H245.389V24.7247Z" fill="white"/>
</svg>
